<?xml version="1.0" standalone="no"?>
<!DOCTYPE svg PUBLIC "-//W3C//DTD SVG 20010904//EN"
 "http://www.w3.org/TR/2001/REC-SVG-20010904/DTD/svg10.dtd">
<svg version="1.0" xmlns="http://www.w3.org/2000/svg"
 width="505.000000pt" height="505.000000pt" viewBox="0 0 505.000000 505.000000"
 preserveAspectRatio="xMidYMid meet">
<metadata>
Created by potrace 1.14, written by Peter Selinger 2001-2017
</metadata>
<g transform="translate(0.000000,505.000000) scale(0.100000,-0.100000)"
fill="#000000" stroke="none">
<path d="M2356 4733 c-1 -1 -38 -5 -81 -9 -44 -3 -87 -10 -95 -15 -13 -7 -13
-8 1 -9 9 0 24 -9 33 -19 17 -19 17 -20 -11 -23 -30 -4 -73 10 -73 23 0 19
-45 18 -132 -1 -51 -12 -100 -24 -108 -27 -8 -3 -21 -7 -28 -9 -8 -1 -21 -6
-30 -10 -9 -4 -21 -8 -26 -8 -20 -2 -17 -26 3 -26 28 0 27 -13 -1 -25 -17 -8
-35 -6 -69 7 -26 9 -49 14 -52 11 -6 -5 -109 -53 -238 -110 l-40 -17 33 -17
c30 -16 31 -18 13 -25 -11 -4 -23 -12 -27 -18 -4 -6 -12 -5 -22 3 -26 22 -71
15 -119 -18 -25 -17 -50 -31 -55 -31 -6 0 -12 -3 -14 -7 -1 -5 -25 -24 -53
-43 -94 -65 -103 -78 -55 -75 35 2 37 -4 12 -33 -13 -15 -26 -20 -43 -16 -71
17 -49 31 -244 -167 -25 -26 -45 -49 -45 -53 0 -4 14 -5 30 -2 17 2 30 1 30
-3 0 -18 -38 -40 -73 -43 -35 -2 -43 -9 -106 -93 -64 -86 -121 -169 -121 -179
0 -3 14 -1 30 4 17 5 30 5 30 2 0 -21 -35 -52 -65 -58 -28 -5 -41 -16 -65 -55
-16 -27 -30 -54 -30 -59 0 -6 -5 -10 -12 -10 -6 0 -9 -3 -6 -6 4 -3 -7 -31
-22 -63 -16 -31 -32 -69 -35 -84 -7 -26 -6 -27 20 -17 35 13 34 14 26 -17 -5
-19 -22 -36 -49 -51 -24 -14 -42 -31 -42 -41 0 -9 -4 -21 -9 -26 -9 -10 -48
-132 -55 -175 -3 -14 -5 -25 -6 -25 -1 0 -4 -15 -6 -32 -3 -20 -1 -33 5 -33 6
0 11 5 11 10 0 6 6 10 14 10 8 0 17 6 19 13 3 7 6 5 6 -5 2 -29 -19 -62 -51
-83 -17 -11 -33 -29 -35 -40 -4 -27 -16 -166 -16 -185 0 -8 -4 -21 -10 -27 -6
-9 -5 -13 4 -13 11 0 11 -2 -1 -10 -13 -9 -13 -10 0 -10 9 0 11 -3 5 -8 -5 -4
-11 -17 -11 -29 -1 -19 1 -20 17 -10 11 7 19 15 19 18 0 4 6 9 13 12 25 9 12
-51 -18 -85 -29 -32 -44 -98 -22 -98 5 0 4 -7 -3 -15 -7 -8 -9 -15 -4 -15 5 0
10 -24 11 -53 0 -28 4 -81 8 -117 l7 -65 24 28 c25 29 24 29 38 -16 2 -8 -7
-27 -21 -43 -22 -26 -24 -35 -18 -84 4 -30 11 -59 16 -64 5 -6 9 -21 9 -33 0
-27 38 -153 50 -167 5 -4 11 1 15 13 9 28 23 26 31 -4 4 -15 0 -39 -10 -60
-16 -33 -16 -37 4 -79 11 -25 20 -47 20 -50 0 -3 16 -38 35 -77 19 -40 35 -77
35 -83 0 -6 7 -20 15 -30 14 -19 15 -18 21 12 8 38 16 40 33 8 11 -19 11 -30
0 -59 -12 -34 -11 -38 42 -122 30 -48 63 -97 74 -109 11 -12 28 -34 38 -49 17
-26 41 -29 32 -4 -3 7 -1 18 4 26 17 26 45 -15 42 -60 -1 -23 5 -49 14 -62 22
-32 196 -207 206 -207 5 0 6 15 2 33 l-6 32 21 -19 c19 -16 40 -77 34 -98 -2
-8 186 -148 199 -148 5 0 9 -4 9 -8 0 -8 43 -32 57 -32 3 0 3 14 -1 31 l-6 31
27 -20 c15 -11 32 -37 38 -57 9 -33 20 -43 87 -81 69 -38 196 -94 213 -94 3 0
1 9 -5 19 -16 32 -12 40 18 32 18 -4 33 -20 45 -44 11 -21 26 -37 36 -37 9 0
22 -5 29 -12 7 -7 12 -9 12 -5 0 3 20 -2 44 -13 24 -10 47 -16 50 -13 3 3 12
0 21 -7 8 -7 15 -10 15 -7 0 3 17 1 38 -4 93 -23 96 -23 61 14 l-20 22 25 3
c14 2 36 -4 48 -12 12 -9 19 -16 14 -16 -20 0 47 -50 67 -51 12 0 36 -2 52 -4
70 -9 225 -17 225 -13 0 3 -9 16 -21 29 l-21 24 33 3 c19 2 35 -1 37 -6 2 -6
17 -24 33 -42 l30 -31 87 5 c48 3 102 8 121 11 18 2 51 5 72 7 46 2 48 9 12
37 l-28 20 30 2 c45 2 56 -1 78 -22 26 -24 35 -24 133 2 43 12 86 22 94 24 8
2 15 4 15 5 0 1 9 3 20 5 12 3 36 11 55 19 34 14 33 17 -10 28 -9 3 -4 9 15
19 27 13 34 13 65 -2 34 -16 36 -16 115 18 44 19 108 48 141 64 34 16 68 29
75 30 8 0 -1 7 -18 15 -39 17 -42 29 -10 39 34 12 57 13 57 4 0 -5 14 -9 30
-9 17 0 30 4 30 9 0 5 8 11 18 14 18 6 74 38 82 48 3 3 32 24 65 46 59 40 94
72 81 74 -3 1 -10 3 -16 4 -5 1 -17 3 -25 4 -14 1 -14 4 2 25 15 20 24 23 63
19 l45 -4 113 109 c61 61 112 112 112 115 0 3 -13 2 -30 -3 -19 -5 -30 -5 -30
1 0 21 29 39 62 39 28 0 80 19 53 20 -5 0 3 11 19 25 16 14 25 25 20 25 -5 0
-1 5 9 11 9 5 17 16 17 24 0 7 4 15 9 17 11 4 101 137 101 149 0 5 -12 4 -26
-2 -33 -12 -36 -9 -21 21 9 18 25 28 54 34 29 6 45 16 54 35 8 14 16 28 19 31
12 12 93 190 93 204 0 9 4 16 9 16 4 0 8 5 8 11 0 13 -42 1 -52 -15 -9 -14
-11 26 -2 49 4 8 21 22 40 30 23 9 38 25 49 51 8 20 13 39 10 42 -3 3 -1 10 4
16 6 7 12 23 15 36 3 14 14 60 24 103 11 42 16 77 13 77 -3 0 -15 -7 -25 -15
-27 -21 -32 -19 -32 11 0 18 11 33 37 52 30 22 38 35 44 72 9 59 14 118 18
208 l4 73 -29 -28 -28 -27 0 42 c0 23 5 42 10 42 6 0 23 11 38 25 27 24 29 29
26 96 -3 73 -7 113 -20 207 l-7 54 -23 -29 c-13 -15 -24 -26 -24 -23 -11 50
-5 76 25 107 14 14 7 71 -25 183 -12 41 -26 92 -32 113 l-11 39 -24 -29 c-14
-15 -22 -23 -20 -18 2 6 1 19 -3 30 -4 11 -1 39 7 61 13 39 12 46 -7 90 -12
27 -26 57 -31 66 -5 10 -9 25 -9 33 0 8 -4 15 -8 15 -4 0 -16 22 -26 49 -9 27
-24 57 -31 67 -14 18 -14 17 -15 -8 0 -38 -15 -42 -35 -11 -14 21 -16 32 -7
61 9 29 8 41 -6 66 -9 17 -19 33 -22 36 -11 11 -50 70 -50 75 0 12 -91 125
-101 125 -5 0 -9 -14 -9 -32 l0 -31 -26 24 c-21 19 -25 31 -21 61 3 24 -1 45
-12 59 -35 46 -203 210 -209 204 -3 -3 -2 -14 4 -23 6 -9 9 -23 7 -29 -9 -27
-53 39 -53 80 0 17 -12 34 -36 53 -20 16 -43 35 -50 42 -7 6 -17 12 -22 12 -6
0 -12 4 -14 8 -2 7 -95 72 -133 95 -7 3 -9 -7 -7 -31 5 -35 4 -36 -14 -22 -30
24 -40 34 -41 43 -3 36 -15 64 -31 72 -157 80 -255 125 -268 125 -2 0 -4 -7
-4 -15 0 -8 5 -15 10 -15 6 0 10 -7 10 -15 0 -9 -6 -12 -17 -9 -42 14 -63 29
-63 45 0 24 -31 44 -116 73 -60 20 -198 56 -219 56 -3 0 3 -12 14 -27 12 -14
19 -28 17 -30 -11 -12 -59 13 -78 41 -12 17 -23 33 -25 35 -1 2 -29 6 -60 8
-32 2 -74 5 -93 8 -73 11 -170 16 -170 10 0 -3 12 -17 28 -30 l27 -24 -36 -1
c-26 0 -42 7 -64 30 -27 28 -32 29 -102 27 -41 -1 -76 -3 -77 -4z m369 -527
c70 -9 104 -15 148 -25 20 -5 37 -6 37 -3 0 3 5 1 12 -6 7 -7 21 -12 32 -12
18 0 64 -13 111 -30 11 -5 36 -13 55 -20 86 -30 310 -139 310 -150 0 -4 8 -11
18 -14 26 -9 60 -31 87 -54 13 -11 32 -25 43 -31 52 -28 267 -239 332 -326 25
-33 48 -61 53 -63 4 -2 7 -8 7 -13 0 -6 9 -19 20 -31 11 -12 20 -28 20 -35 0
-7 5 -13 10 -13 6 0 10 -7 10 -15 0 -8 3 -15 8 -15 4 0 18 -25 32 -55 14 -30
28 -55 33 -55 4 0 7 -9 7 -20 0 -11 5 -20 10 -20 6 0 10 -9 10 -19 0 -11 5
-23 10 -26 6 -3 10 -15 10 -26 0 -10 5 -19 10 -19 6 0 10 -8 10 -17 0 -10 11
-45 25 -78 14 -33 28 -77 31 -97 4 -21 11 -38 16 -38 5 0 6 -4 3 -10 -3 -5 1
-38 9 -72 9 -35 18 -83 21 -107 3 -23 8 -47 11 -52 7 -12 8 -414 1 -426 -3 -4
-8 -31 -11 -58 -4 -28 -13 -78 -22 -110 -13 -53 -22 -97 -27 -130 -1 -5 -4
-12 -7 -15 -3 -3 -16 -36 -29 -75 -12 -38 -36 -98 -52 -131 -16 -34 -29 -64
-29 -67 0 -8 -122 -210 -130 -217 -4 -3 -17 -21 -31 -41 -56 -83 -188 -225
-279 -299 -23 -19 -50 -43 -58 -53 -9 -9 -22 -17 -28 -17 -7 0 -14 -4 -16 -8
-3 -9 -153 -112 -162 -112 -3 0 -27 -12 -53 -28 -148 -85 -415 -171 -618 -198
-64 -9 -386 -14 -398 -7 -5 3 -32 7 -59 9 -27 2 -66 8 -86 13 -20 6 -52 11
-69 13 -18 1 -33 6 -33 10 0 4 -11 8 -23 8 -26 0 -141 34 -169 50 -10 6 -23
10 -28 10 -15 0 -176 75 -245 113 -74 42 -210 136 -248 172 -20 19 -40 35 -43
35 -8 0 -159 154 -207 210 -120 142 -308 481 -307 553 0 4 -6 20 -13 35 -8 15
-20 52 -26 82 -7 30 -16 66 -21 80 -9 25 -14 53 -25 145 -3 28 -8 66 -11 85
-10 73 -3 337 11 420 8 47 26 127 46 215 21 90 102 295 131 334 10 13 18 28
18 34 0 15 86 152 149 236 73 99 190 220 281 295 41 33 77 64 78 68 2 5 9 8
16 8 7 0 21 9 31 20 10 11 22 20 27 20 4 0 27 14 50 30 22 17 47 30 54 30 7 0
14 4 16 9 6 14 242 123 298 136 8 2 29 8 45 15 53 21 215 54 315 66 30 3 57 7
58 9 6 6 323 -2 377 -9z"/>
<path d="M2410 4169 c0 -4 -15 -6 -32 -5 -30 2 -75 -3 -183 -19 -22 -3 -61
-12 -88 -20 -26 -8 -49 -14 -52 -15 -3 0 -6 0 -7 -1 -2 0 -14 -2 -28 -5 -35
-6 -152 -50 -238 -90 -41 -19 -75 -34 -77 -34 -2 0 -41 -23 -87 -51 -161 -98
-295 -209 -413 -340 -53 -59 -135 -166 -135 -177 0 -6 -4 -12 -9 -14 -5 -1
-31 -43 -59 -93 -28 -49 -57 -97 -64 -105 -7 -8 -12 -17 -10 -20 3 -5 -27 -80
-49 -122 -5 -10 -9 -27 -9 -38 0 -11 -4 -20 -8 -20 -8 0 -19 -36 -52 -170 -43
-170 -57 -430 -33 -604 8 -56 15 -113 16 -128 1 -16 4 -28 7 -28 3 0 6 -10 7
-22 1 -13 7 -41 14 -63 19 -63 50 -158 59 -180 5 -11 19 -45 32 -75 12 -30 39
-86 60 -124 21 -38 38 -72 38 -76 0 -4 7 -13 15 -20 9 -7 22 -27 31 -45 8 -18
23 -41 32 -51 9 -11 33 -39 52 -64 31 -40 52 -64 142 -160 13 -14 52 -50 88
-80 36 -30 66 -58 68 -62 2 -5 10 -8 17 -8 7 0 15 -4 17 -8 5 -12 149 -108
175 -116 11 -4 27 -13 33 -21 7 -8 21 -15 31 -15 11 0 19 -4 19 -10 0 -5 5
-10 10 -10 6 0 30 -9 52 -20 23 -11 48 -20 55 -20 7 0 13 -5 13 -12 0 -6 3 -9
6 -6 3 4 42 -7 87 -24 45 -16 83 -29 85 -29 1 1 3 1 5 0 1 0 13 -2 27 -5 14
-2 32 -7 40 -10 8 -4 26 -8 40 -10 14 -2 32 -6 40 -7 28 -6 104 -17 160 -22
51 -5 249 -9 260 -5 3 1 25 3 50 5 69 6 131 14 170 22 19 3 45 7 58 7 12 1 22
4 22 7 0 3 26 12 58 19 31 7 80 21 107 32 28 11 55 21 60 23 37 8 279 128 295
145 3 3 34 25 70 49 36 24 67 48 68 53 2 4 8 8 14 8 6 0 24 13 40 30 15 17 31
30 34 30 14 0 214 214 214 229 0 5 4 11 8 13 13 5 92 114 92 126 0 7 3 12 8
12 4 0 18 21 32 48 13 26 27 49 30 52 3 3 16 30 30 60 14 30 28 56 33 58 4 2
7 9 7 16 0 7 11 40 24 73 33 80 83 270 98 368 12 87 19 465 7 465 -4 0 -9 28
-12 63 -3 34 -8 73 -10 87 -5 26 -45 173 -55 200 -3 8 -6 20 -8 25 -8 28 -68
165 -96 219 -35 66 -153 250 -178 276 -8 9 -33 37 -55 64 -35 43 -85 93 -158
161 -12 11 -42 36 -67 55 -25 19 -46 38 -48 42 -2 5 -10 8 -18 8 -8 0 -14 5
-14 10 0 6 -7 10 -15 10 -8 0 -15 4 -15 8 0 5 -10 14 -22 21 -13 6 -45 25 -73
41 -66 40 -213 110 -231 110 -8 0 -14 4 -14 8 0 8 -22 16 -150 52 -41 11 -82
23 -90 27 -8 3 -22 7 -30 8 -66 10 -106 17 -111 20 -3 3 -35 5 -70 6 -35 1
-72 6 -83 11 -14 8 -17 7 -11 -3 6 -8 4 -10 -5 -4 -16 10 -190 13 -190 4z
m275 -233 c62 -7 105 -16 170 -36 33 -10 80 -23 105 -31 25 -7 51 -17 58 -22
6 -5 12 -7 12 -4 0 11 242 -101 248 -115 2 -5 10 -8 18 -8 8 0 14 -4 14 -10 0
-5 6 -10 13 -10 6 0 28 -14 47 -30 19 -16 38 -30 43 -30 17 0 201 -177 257
-249 19 -24 41 -49 48 -56 6 -8 12 -17 12 -22 0 -4 14 -26 30 -47 17 -22 30
-45 30 -52 0 -7 4 -14 8 -16 27 -10 172 -363 172 -417 0 -11 4 -21 9 -21 5 0
12 -28 15 -62 9 -80 14 -400 7 -413 -7 -13 -10 -31 -12 -82 -2 -24 -5 -43 -9
-43 -3 0 -7 -16 -8 -35 -3 -35 -55 -205 -87 -280 -79 -188 -176 -330 -328
-485 -91 -93 -251 -217 -304 -237 -10 -4 -20 -9 -23 -12 -3 -3 -25 -16 -50
-27 -133 -63 -183 -84 -200 -84 -10 0 -21 -4 -24 -9 -5 -7 -112 -34 -133 -33
-5 0 -15 -4 -23 -8 -53 -28 -508 -31 -580 -3 -8 3 -22 7 -30 8 -96 14 -306 96
-420 164 -19 12 -50 28 -67 36 -18 8 -33 20 -33 25 0 6 -6 10 -13 10 -7 0 -23
9 -35 20 -12 12 -22 18 -22 15 0 -3 -11 6 -25 20 -14 14 -29 25 -34 25 -8 0
-123 115 -196 195 -46 50 -167 226 -162 235 1 3 -8 19 -19 35 -33 46 -100 209
-115 275 -4 19 -14 62 -22 95 -8 33 -18 78 -22 100 -10 53 -16 465 -8 479 4 6
9 29 11 51 3 38 34 158 51 200 21 51 116 243 132 265 9 14 18 30 19 35 1 6 23
41 49 80 58 88 292 325 320 325 5 0 16 9 26 20 10 11 24 20 31 20 7 0 14 4 16
9 6 17 213 126 278 146 14 4 30 11 35 15 16 12 230 70 258 70 14 0 28 4 31 8
2 4 42 9 88 11 45 1 84 4 85 5 4 4 210 -3 258 -8z"/>
<path d="M2225 3870 c-28 -5 -50 -40 -26 -40 6 0 11 -7 11 -16 0 -9 13 -62 29
-118 17 -55 32 -114 35 -131 2 -16 5 -30 6 -30 1 0 3 -7 5 -15 1 -8 12 -51 23
-95 22 -82 25 -96 42 -179 5 -26 14 -65 20 -85 5 -21 14 -64 19 -97 5 -32 12
-68 14 -79 3 -11 6 -25 6 -32 1 -8 21 -11 64 -8 34 1 67 4 72 6 6 1 18 -1 28
-6 24 -10 34 2 40 45 7 44 34 189 41 215 3 11 9 36 14 55 5 19 10 40 12 45 1
6 4 15 5 20 2 6 6 21 8 35 14 71 65 244 121 415 15 45 22 83 17 88 -5 5 -33 9
-62 10 -53 2 -54 1 -57 -28 -2 -16 -9 -36 -15 -44 -10 -12 -9 -13 3 -6 12 6
13 5 3 -6 -7 -7 -13 -20 -13 -29 0 -28 -39 -142 -71 -207 -64 -131 -139 -133
-210 -7 -10 19 -19 43 -19 54 0 11 -4 20 -8 20 -5 0 -9 6 -10 13 0 6 -10 46
-20 87 -11 41 -23 94 -27 118 -6 40 -8 42 -38 40 -18 -1 -45 -5 -62 -8z"/>
<path d="M2488 3562 c-27 -2 -38 -8 -38 -19 0 -9 3 -14 6 -10 4 3 14 -4 24
-16 16 -19 21 -20 42 -9 13 7 29 21 35 32 10 15 8 18 -10 21 -12 2 -39 3 -59
1z"/>
<path d="M2140 3511 c-114 -41 -238 -105 -301 -155 -14 -12 -40 -32 -59 -46
-57 -44 -146 -138 -199 -212 -28 -40 -32 -50 -21 -63 7 -8 16 -15 21 -15 8 0
100 -59 109 -70 3 -4 20 -13 38 -21 17 -8 32 -17 32 -21 0 -5 7 -8 15 -8 8 0
15 -4 15 -10 0 -5 5 -10 11 -10 5 0 27 -11 47 -25 28 -19 38 -22 42 -12 11 29
87 115 144 163 63 52 213 134 246 134 10 0 22 5 25 10 7 12 -34 201 -69 316
l-21 71 -75 -26z m90 -117 c0 -25 -28 -46 -50 -39 -11 4 -18 10 -15 15 3 5 0
10 -7 12 -8 3 -4 12 10 26 18 18 26 20 42 12 11 -6 20 -18 20 -26z m-96 -160
c20 -19 20 -22 2 -40 -24 -23 -55 -17 -62 12 -10 40 30 59 60 28z m-254 -37
c0 -22 -17 -39 -36 -35 -22 4 -32 47 -13 59 16 9 49 -7 49 -24z m-18 -196 c-3
-32 -6 -34 -31 -26 -14 4 -21 15 -21 31 0 22 4 25 28 22 22 -2 27 -7 24 -27z"/>
<path d="M2795 3531 c-4 -8 -9 -25 -55 -194 -11 -43 -18 -82 -15 -88 4 -5 1
-9 -4 -9 -6 0 -11 -18 -11 -41 0 -29 -4 -38 -12 -34 -7 4 -4 -1 6 -9 11 -9 26
-16 33 -16 7 0 21 -4 31 -9 9 -4 41 -19 69 -32 29 -13 53 -27 53 -31 0 -5 6
-8 13 -8 24 0 142 -108 201 -183 32 -42 44 -45 74 -17 12 11 28 20 36 20 8 0
16 3 18 8 2 4 32 25 68 46 36 22 67 43 68 48 2 4 8 8 13 8 5 0 27 13 49 29
l39 28 -25 34 c-13 18 -34 47 -47 63 -28 39 -162 176 -171 176 -4 0 -21 13
-39 30 -18 16 -36 30 -41 30 -5 0 -17 6 -25 14 -49 43 -314 155 -326 137z
m189 -177 c27 -26 12 -58 -25 -52 -27 3 -37 32 -19 53 16 19 25 19 44 -1z
m-172 -66 c12 -20 10 -25 -14 -43 -21 -15 -24 -14 -40 6 -13 15 -15 26 -8 39
11 21 48 19 62 -2z m296 -180 c3 -25 0 -28 -27 -28 -26 0 -31 4 -31 23 0 30 9
39 35 35 13 -2 21 -12 23 -30z m190 -18 c-2 -25 -6 -30 -29 -30 -30 0 -45 25
-28 46 6 8 22 14 35 14 21 0 24 -4 22 -30z"/>
<path d="M3740 3192 c0 -5 -12 -15 -27 -23 -15 -8 -74 -49 -130 -91 -57 -43
-107 -78 -112 -78 -5 0 -11 -4 -13 -8 -1 -5 -51 -41 -110 -80 -103 -69 -128
-85 -228 -141 -25 -13 -47 -28 -50 -31 -3 -3 -26 -16 -52 -28 -57 -26 -60 -30
-43 -67 21 -47 35 -96 35 -122 0 -22 3 -23 53 -19 28 3 52 5 52 6 0 4 57 11
215 24 95 8 361 19 490 20 l135 2 -1 34 c-1 19 -2 49 -3 67 l-1 32 -77 -6
c-351 -32 -481 40 -341 188 42 45 123 109 137 109 6 0 11 5 11 10 0 6 4 10 9
10 8 0 117 63 128 74 5 5 -27 78 -37 86 -4 3 -9 13 -13 23 -6 17 -27 24 -27 9z"/>
<path d="M1224 3132 c-16 -31 -30 -60 -32 -63 -1 -3 11 -12 28 -19 16 -7 30
-15 30 -19 0 -3 23 -17 50 -30 28 -14 50 -29 50 -33 0 -4 7 -8 15 -8 8 0 15
-4 15 -10 0 -5 5 -10 11 -10 6 0 16 -6 23 -12 7 -7 28 -27 47 -44 70 -64 89
-107 69 -153 -11 -25 -63 -57 -112 -67 -27 -5 -236 -6 -246 0 -4 2 -31 7 -61
10 -45 5 -52 4 -48 -8 4 -9 2 -18 -2 -20 -5 -3 -8 -27 -7 -53 l1 -47 100 -3
c278 -8 544 -24 645 -38 19 -2 53 -7 75 -10 22 -3 59 -8 81 -11 42 -5 42 -5
42 28 0 18 9 61 20 95 11 34 17 65 14 68 -3 3 0 5 6 5 7 0 12 5 12 10 0 6 -6
10 -13 10 -17 0 -180 91 -274 153 -23 15 -44 27 -48 27 -3 0 -46 27 -96 60
-49 33 -94 60 -99 60 -6 0 -10 4 -10 9 0 5 -13 14 -30 21 -16 7 -30 16 -30 20
0 4 -13 13 -30 20 -16 7 -30 15 -30 19 0 3 -23 20 -50 36 -27 17 -50 33 -50
37 0 4 -9 12 -19 17 -16 9 -22 3 -47 -47z"/>
<path d="M2383 2891 c-119 -36 -232 -120 -274 -203 -10 -21 -29 -57 -40 -80
-33 -65 -42 -177 -22 -267 30 -136 118 -250 244 -316 38 -20 69 -33 69 -29 0
5 5 3 12 -4 7 -7 29 -12 50 -12 21 0 38 -3 38 -7 0 -5 16 -8 35 -8 19 0 35 2
35 5 0 3 16 6 36 7 54 1 174 40 174 55 0 5 6 8 14 8 23 0 131 116 159 172 15
29 33 76 40 104 21 81 11 233 -18 278 -8 12 -16 34 -19 49 -9 52 -95 147 -174
194 -113 67 -249 87 -359 54z"/>
<path d="M1433 2808 c-4 -18 -6 -36 -5 -40 1 -5 -2 -8 -8 -8 -5 0 -10 -7 -10
-15 0 -18 7 -18 49 -4 37 13 42 44 11 77 -27 29 -29 28 -37 -10z"/>
<path d="M3547 2804 c-15 -16 -27 -32 -27 -37 0 -10 61 -47 78 -47 16 0 14 27
-7 74 l-17 39 -27 -29z"/>
<path d="M1363 2484 c-3 -8 -3 -21 1 -29 3 -8 1 -15 -5 -15 -6 0 -7 -5 -3 -12
4 -7 9 -42 10 -78 1 -36 7 -90 13 -120 6 -30 13 -64 15 -75 15 -72 51 -158
130 -312 6 -13 14 -23 19 -23 4 0 7 -5 7 -11 0 -7 16 -32 36 -55 30 -37 38
-42 54 -34 28 15 70 56 70 68 0 5 10 13 23 16 24 6 62 36 143 109 46 42 51 52
41 67 -6 10 -15 16 -19 14 -4 -3 -8 2 -8 10 0 8 -6 21 -13 28 -21 21 -64 110
-85 175 -20 60 -33 138 -37 218 -1 22 -3 42 -4 45 0 3 -37 6 -82 8 -44 1 -94
4 -110 6 -16 2 -34 -3 -40 -10 -14 -17 -46 -18 -51 -3 -6 18 -99 29 -105 13z
m295 -96 c20 -20 14 -44 -14 -56 -20 -10 -28 -9 -40 3 -16 16 -17 22 -3 48 11
20 40 22 57 5z m-71 -263 c3 -8 -2 -22 -11 -30 -35 -35 -85 8 -52 44 15 16 23
18 38 10 10 -6 22 -17 25 -24z m157 -71 c22 -22 20 -41 -6 -55 -18 -10 -24 -8
-40 11 -17 21 -17 24 -2 41 21 23 28 24 48 3z"/>
<path d="M3535 2492 c-1 -2 -30 -3 -64 -3 -33 0 -61 -5 -61 -10 0 -5 -9 -9
-20 -9 -11 0 -20 4 -20 10 0 9 -99 3 -109 -6 -3 -2 -6 -37 -8 -77 -1 -39 -6
-83 -10 -97 -3 -14 -8 -34 -10 -45 -9 -52 -57 -155 -106 -229 l-40 -59 38 -35
c20 -19 46 -35 58 -36 12 -1 27 -12 33 -25 14 -27 33 -45 118 -115 56 -45 61
-47 73 -29 8 10 23 28 33 41 11 12 17 22 13 22 -3 0 3 10 14 23 44 48 123 226
148 332 7 31 8 37 23 117 5 26 10 90 11 142 l2 94 -56 -2 c-31 0 -58 -2 -60
-4z m13 -123 c6 -48 -49 -63 -63 -18 -9 26 13 51 39 47 14 -2 22 -12 24 -29z
m-167 -201 c10 -18 8 -24 -7 -35 -35 -25 -68 -5 -57 35 7 29 48 30 64 0z m55
-175 c10 -15 10 -21 -2 -34 -18 -20 -50 -14 -57 11 -10 37 35 54 59 23z"/>
<path d="M2055 1992 c-45 -42 -103 -95 -129 -117 -27 -22 -58 -48 -70 -58 -11
-10 -36 -31 -55 -45 -18 -15 -43 -35 -55 -46 -11 -10 -48 -39 -81 -64 -33 -26
-64 -50 -70 -55 -47 -37 -133 -100 -162 -118 l-35 -22 38 -38 c21 -22 44 -39
51 -39 7 0 25 12 41 28 45 43 84 75 122 102 19 13 37 27 40 30 18 23 121 66
163 69 65 4 91 -25 89 -99 0 -6 -11 -80 -15 -100 -1 -8 -6 -20 -9 -26 -4 -6
-9 -22 -12 -37 -2 -14 -21 -65 -40 -114 -20 -48 -36 -92 -36 -99 0 -13 63 -43
98 -47 22 -2 28 10 83 178 33 99 61 185 63 190 1 6 9 26 18 45 8 19 21 53 28
75 7 22 16 42 19 45 3 3 12 23 20 45 15 41 67 158 106 236 l23 46 -32 18 c-17
10 -48 35 -69 57 -21 21 -42 38 -45 38 -4 0 -43 -35 -87 -78z"/>
<path d="M2850 2049 c-14 -11 -37 -32 -52 -45 -15 -13 -34 -24 -42 -24 -27 0
-36 -24 -21 -54 8 -16 15 -35 15 -42 0 -8 4 -14 8 -14 5 0 13 -15 19 -32 10
-29 77 -197 102 -253 11 -24 35 -88 37 -95 0 -3 6 -18 13 -35 23 -56 63 -170
64 -182 0 -7 4 -13 8 -13 3 0 9 -12 12 -27 8 -43 49 -153 57 -153 18 0 120 51
120 60 0 5 -4 10 -8 10 -4 0 -14 20 -21 44 -7 25 -16 46 -20 48 -12 5 -64 180
-69 230 -7 74 5 117 36 130 35 14 71 17 78 6 3 -4 15 -8 27 -8 12 0 33 -9 47
-20 14 -11 31 -20 38 -20 6 0 12 -4 12 -10 0 -5 5 -10 11 -10 6 0 16 -6 23
-12 7 -7 25 -22 40 -33 16 -11 41 -32 56 -47 16 -16 32 -28 35 -28 4 0 16 -12
27 -26 l21 -25 43 43 c24 24 43 48 43 53 0 6 -42 40 -92 77 -94 70 -135 102
-174 138 -12 11 -25 20 -28 20 -3 0 -18 11 -33 24 -15 14 -37 33 -49 43 -12
10 -41 34 -64 53 -23 19 -47 40 -53 45 -6 6 -45 39 -86 75 -41 36 -90 80 -109
98 -19 17 -38 32 -41 32 -3 -1 -16 -10 -30 -21z"/>
<path d="M2191 1613 c-24 -59 -47 -117 -52 -128 -4 -11 -17 -43 -27 -72 l-19
-51 21 -7 c84 -27 194 -54 251 -61 77 -9 227 -12 240 -5 6 3 32 7 60 9 27 2
58 8 69 14 11 6 16 6 13 0 -6 -8 160 41 169 51 2 2 -16 55 -41 118 -25 63 -45
120 -45 127 0 6 -5 12 -10 12 -6 0 -9 3 -8 8 2 4 -5 26 -15 50 -19 48 -25 50
-117 24 -87 -24 -226 -27 -315 -6 -142 33 -125 41 -174 -83z m77 -20 c2 -17
-4 -26 -22 -35 -23 -10 -28 -9 -40 7 -10 15 -11 23 -2 37 16 27 60 20 64 -9z
m340 -43 c-2 -17 -10 -26 -26 -28 -43 -6 -60 37 -25 65 23 18 55 -5 51 -37z
m246 -56 c20 -20 20 -27 -2 -47 -16 -15 -20 -15 -40 -1 -27 18 -28 39 -4 53
23 14 28 14 46 -5z m-394 -49 c11 -20 11 -27 0 -40 -16 -19 -31 -19 -55 -1
-18 13 -18 17 -6 40 18 33 44 33 61 1z"/>
<path d="M1840 1571 c0 -5 -12 -12 -27 -16 l-28 -7 39 -34 c51 -44 62 -43 64
4 1 32 -2 41 -23 50 -14 6 -25 8 -25 3z"/>
<path d="M3127 1567 c-2 -6 -3 -22 -2 -34 1 -13 -2 -23 -6 -23 -4 0 -5 -9 -2
-20 4 -15 9 -18 18 -10 6 5 14 8 16 6 2 -2 19 11 37 29 18 19 28 36 22 40 -5
3 -10 4 -10 1 0 -3 -15 1 -34 9 -26 11 -35 12 -39 2z"/>
</g>
</svg>
